<svg id="SvgjsSvg1006" width="1107" height="453" xmlns="http://www.w3.org/2000/svg" version="1.1" xmlns:xlink="http://www.w3.org/1999/xlink" xmlns:svgjs="http://svgjs.com/svgjs"><defs id="SvgjsDefs1007"><pattern patternUnits="userSpaceOnUse" id="pattern_mark_0" width="300" height="300"><text x="150" y="100" fill="rgba(229,229,229,0.8)" font-size="18" transform="rotate(-45, 150, 150)" style="dominant-baseline: middle; text-anchor: middle;"></text></pattern><pattern patternUnits="userSpaceOnUse" id="pattern_mark_1" width="300" height="300"><text x="150" y="200" fill="rgba(229,229,229,0.8)" font-size="18" transform="rotate(-45, 150, 150)" style="dominant-baseline: middle; text-anchor: middle;"></text></pattern><marker id="SvgjsMarker1109" markerWidth="13" markerHeight="9" refX="9.5" refY="4.5" viewBox="0 0 13 9" orient="auto" markerUnits="userSpaceOnUse" stroke-dasharray="0,0"><path id="SvgjsPath1110" d="M0,0 L13,4.5 L0,9 L0,0" fill="#323232" stroke="#323232" stroke-width="1"></path></marker><marker id="SvgjsMarker1119" markerWidth="13" markerHeight="9" refX="9.5" refY="4.5" viewBox="0 0 13 9" orient="auto" markerUnits="userSpaceOnUse" stroke-dasharray="0,0"><path id="SvgjsPath1120" d="M0,0 L13,4.5 L0,9 L0,0" fill="#323232" stroke="#323232" stroke-width="1"></path></marker><marker id="SvgjsMarker1127" markerWidth="13" markerHeight="9" refX="9.5" refY="4.5" viewBox="0 0 13 9" orient="auto" markerUnits="userSpaceOnUse" stroke-dasharray="0,0"><path id="SvgjsPath1128" d="M0,0 L13,4.5 L0,9 L0,0" fill="#323232" stroke="#323232" stroke-width="1"></path></marker><marker id="SvgjsMarker1135" markerWidth="13" markerHeight="9" refX="9.5" refY="4.5" viewBox="0 0 13 9" orient="auto" markerUnits="userSpaceOnUse" stroke-dasharray="0,0"><path id="SvgjsPath1136" d="M0,0 L13,4.5 L0,9 L0,0" fill="#323232" stroke="#323232" stroke-width="1"></path></marker><marker id="SvgjsMarker1139" markerWidth="13" markerHeight="9" refX="9.5" refY="4.5" viewBox="0 0 13 9" orient="auto" markerUnits="userSpaceOnUse" stroke-dasharray="0,0"><path id="SvgjsPath1140" d="M0,0 L13,4.5 L0,9 L0,0" fill="#323232" stroke="#323232" stroke-width="1"></path></marker><marker id="SvgjsMarker1143" markerWidth="13" markerHeight="9" refX="9.5" refY="4.5" viewBox="0 0 13 9" orient="auto" markerUnits="userSpaceOnUse" stroke-dasharray="0,0"><path id="SvgjsPath1144" d="M0,0 L13,4.5 L0,9 L0,0" fill="#323232" stroke="#323232" stroke-width="1"></path></marker><marker id="SvgjsMarker1147" markerWidth="13" markerHeight="9" refX="9.5" refY="4.5" viewBox="0 0 13 9" orient="auto" markerUnits="userSpaceOnUse" stroke-dasharray="0,0"><path id="SvgjsPath1148" d="M0,0 L13,4.5 L0,9 L0,0" fill="#323232" stroke="#323232" stroke-width="1"></path></marker><marker id="SvgjsMarker1151" markerWidth="13" markerHeight="9" refX="9.5" refY="4.5" viewBox="0 0 13 9" orient="auto" markerUnits="userSpaceOnUse" stroke-dasharray="0,0"><path id="SvgjsPath1152" d="M0,0 L13,4.5 L0,9 L0,0" fill="#323232" stroke="#323232" stroke-width="1"></path></marker><marker id="SvgjsMarker1155" markerWidth="13" markerHeight="9" refX="9.5" refY="4.5" viewBox="0 0 13 9" orient="auto" markerUnits="userSpaceOnUse" stroke-dasharray="0,0"><path id="SvgjsPath1156" d="M0,0 L13,4.5 L0,9 L0,0" fill="#323232" stroke="#323232" stroke-width="1"></path></marker><marker id="SvgjsMarker1159" markerWidth="13" markerHeight="9" refX="9.5" refY="4.5" viewBox="0 0 13 9" orient="auto" markerUnits="userSpaceOnUse" stroke-dasharray="0,0"><path id="SvgjsPath1160" d="M0,0 L13,4.5 L0,9 L0,0" fill="#323232" stroke="#323232" stroke-width="1"></path></marker><marker id="SvgjsMarker1163" markerWidth="13" markerHeight="9" refX="9.5" refY="4.5" viewBox="0 0 13 9" orient="auto" markerUnits="userSpaceOnUse" stroke-dasharray="0,0"><path id="SvgjsPath1164" d="M0,0 L13,4.5 L0,9 L0,0" fill="#323232" stroke="#323232" stroke-width="1"></path></marker><marker id="SvgjsMarker1167" markerWidth="13" markerHeight="9" refX="9.5" refY="4.5" viewBox="0 0 13 9" orient="auto" markerUnits="userSpaceOnUse" stroke-dasharray="0,0"><path id="SvgjsPath1168" d="M0,0 L13,4.5 L0,9 L0,0" fill="#323232" stroke="#323232" stroke-width="1"></path></marker><marker id="SvgjsMarker1177" markerWidth="13" markerHeight="9" refX="9.5" refY="4.5" viewBox="0 0 13 9" orient="auto" markerUnits="userSpaceOnUse" stroke-dasharray="0,0"><path id="SvgjsPath1178" d="M0,0 L13,4.5 L0,9 L0,0" fill="#323232" stroke="#323232" stroke-width="1"></path></marker></defs><rect id="svgbackgroundid" width="1107" height="453" fill="transparent"></rect><rect id="SvgjsRect1009" width="1107" height="453" fill="url(#pattern_mark_0)"></rect><rect id="SvgjsRect1010" width="1107" height="453" fill="url(#pattern_mark_1)"></rect><g id="SvgjsG1011" transform="translate(25.00851821899414,25.002838134765625)"><path id="SvgjsPath1012" d="M 0 4Q 0 0 4 0L 1053.1874923706055 0Q 1057.1874923706055 0 1057.1874923706055 4L 1057.1874923706055 399Q 1057.1874923706055 403 1053.1874923706055 403L 4 403Q 0 403 0 399Z" stroke-dasharray="3,4" stroke="rgba(50,50,50,1)" stroke-width="1.5" fill-opacity="1" fill="#ffffff"></path><g id="SvgjsG1013"><text id="SvgjsText1014" font-family="微软雅黑" text-anchor="middle" font-size="13px" width="1048px" fill="#323232" font-weight="400" align="middle" lineHeight="125%" anchor="middle" family="微软雅黑" size="13px" weight="400" font-style="" opacity="1" y="2.6607142857142847" transform="rotate(0)"><tspan id="SvgjsTspan1015" dy="16.25" x="529"><tspan id="SvgjsTspan1016" style="">training</tspan></tspan><tspan id="SvgjsTspan1017" dy="16.25" x="529"><tspan id="SvgjsTspan1018" style=""> </tspan></tspan><tspan id="SvgjsTspan1019" dy="16.25" x="529"><tspan id="SvgjsTspan1020" style=""> </tspan></tspan></text></g></g><g id="SvgjsG1021" transform="translate(40.105098724365234,216.71590423583984)"><path id="SvgjsPath1022" d="M 0 4Q 0 0 4 0L 1022.9943313598633 0Q 1026.9943313598633 0 1026.9943313598633 4L 1026.9943313598633 191.89291912576425Q 1026.9943313598633 195.89291912576425 1022.9943313598633 195.89291912576425L 4 195.89291912576425Q 0 195.89291912576425 0 191.89291912576425Z" stroke-dasharray="3,4" stroke="rgba(50,50,50,1)" stroke-width="1.5" fill="none"></path><g id="SvgjsG1023"><text id="SvgjsText1024" font-family="微软雅黑" text-anchor="middle" font-size="13px" width="1017px" fill="#323232" font-weight="400" align="middle" lineHeight="125%" anchor="middle" family="微软雅黑" size="13px" weight="400" font-style="" opacity="1" y="-4.132648633873982" transform="rotate(0)"><tspan id="SvgjsTspan1025" dy="16.25" x="513.5"><tspan id="SvgjsTspan1026" style="">inference</tspan></tspan><tspan id="SvgjsTspan1027" dy="16.25" x="513.5"><tspan id="SvgjsTspan1028" style=""> </tspan></tspan></text></g></g><g id="SvgjsG1029" transform="translate(55.54827880859375,52.002838134765625)"><path id="SvgjsPath1030" d="M 0 4Q 0 0 4 0L 126.10797119140625 0Q 130.10797119140625 0 130.10797119140625 4L 130.10797119140625 338.9473896821339Q 130.10797119140625 342.9473896821339 126.10797119140625 342.9473896821339L 4 342.9473896821339Q 0 342.9473896821339 0 338.9473896821339Z" stroke-dasharray="10,6" stroke="rgba(50,50,50,1)" stroke-width="1.5" fill="none"></path><g id="SvgjsG1031"><text id="SvgjsText1032" font-family="微软雅黑" text-anchor="middle" font-size="13px" width="121px" fill="#323232" font-weight="400" align="middle" lineHeight="125%" anchor="middle" family="微软雅黑" size="13px" weight="400" font-style="" opacity="1" y="6.37124212015242" transform="rotate(0)"><tspan id="SvgjsTspan1033" dy="16.25" x="65.5"><tspan id="SvgjsTspan1034" style="">input</tspan></tspan><tspan id="SvgjsTspan1035" dy="16.25" x="65.5"><tspan id="SvgjsTspan1036" style=""> </tspan></tspan></text></g></g><g id="SvgjsG1037" transform="translate(329.51988220214844,240.21590423583984)"><path id="SvgjsPath1038" d="M 0 4Q 0 0 4 0L 231 0Q 235 0 235 4L 235 149Q 235 153 231 153L 4 153Q 0 153 0 149Z" stroke-dasharray="3,4" stroke="rgba(50,50,50,1)" stroke-width="1.5" fill="none"></path><g id="SvgjsG1039"><text id="SvgjsText1040" font-family="微软雅黑" text-anchor="middle" font-size="13px" width="225px" fill="#323232" font-weight="400" align="middle" lineHeight="125%" anchor="middle" family="微软雅黑" size="13px" weight="400" font-style="" opacity="1" y="1.3035714285714288" transform="rotate(0)"><tspan id="SvgjsTspan1041" dy="16.25" x="117.5"><tspan id="SvgjsTspan1042" style="">G.L. attention</tspan></tspan></text></g></g><g id="SvgjsG1043" transform="translate(75.10226440429688,333.71590423583984)"><path id="SvgjsPath1044" d="M 0 0L 91 0L 91 46L 0 46Z" stroke-dasharray="3,4" stroke="rgba(50,50,50,1)" stroke-width="1.5" fill-opacity="1" fill="#f2f2f2"></path><g id="SvgjsG1045"><text id="SvgjsText1046" font-family="微软雅黑" text-anchor="middle" font-size="13px" width="71px" fill="#323232" font-weight="400" align="middle" lineHeight="125%" anchor="middle" family="微软雅黑" size="13px" weight="400" font-style="" opacity="1" y="12.375" transform="rotate(0)"><tspan id="SvgjsTspan1047" dy="16.25" x="45.5"><tspan id="SvgjsTspan1048" style="">image</tspan></tspan></text></g></g><g id="SvgjsG1049" transform="translate(216.62925720214844,333.71590423583984)"><path id="SvgjsPath1050" d="M 0 4Q 0 0 4 0L 87 0Q 91 0 91 4L 91 42Q 91 46 87 46L 4 46Q 0 46 0 42Z" stroke="rgba(233,214,111,1)" stroke-width="1.5" fill-opacity="1" fill="#fcf9ea"></path><g id="SvgjsG1051"><text id="SvgjsText1052" font-family="微软雅黑" text-anchor="middle" font-size="13px" width="71px" fill="#323232" font-weight="400" align="middle" lineHeight="125%" anchor="middle" family="微软雅黑" size="13px" weight="400" font-style="" opacity="1" y="12.375" transform="rotate(0)"><tspan id="SvgjsTspan1053" dy="16.25" x="45.5"><tspan id="SvgjsTspan1054" style="">CNN</tspan></tspan></text></g></g><g id="SvgjsG1055" transform="translate(948.1022644042969,333.71590423583984)"><path id="SvgjsPath1056" d="M 0 0L 91 0L 91 46L 0 46Z" stroke-dasharray="3,4" stroke="rgba(50,50,50,1)" stroke-width="1.5" fill-opacity="1" fill="#f2f2f2"></path><g id="SvgjsG1057"><text id="SvgjsText1058" font-family="微软雅黑" text-anchor="middle" font-size="13px" width="71px" fill="#323232" font-weight="400" align="middle" lineHeight="125%" anchor="middle" family="微软雅黑" size="13px" weight="400" font-style="" opacity="1" y="3.875" transform="rotate(0)"><tspan id="SvgjsTspan1059" dy="16.25" x="45.5"><tspan id="SvgjsTspan1060" style="">license </tspan></tspan><tspan id="SvgjsTspan1061" dy="16.25" x="45.5"><tspan id="SvgjsTspan1062" style="">plate result</tspan></tspan></text></g></g><g id="SvgjsG1063" transform="translate(948.1022644042969,148.71590423583984)"><path id="SvgjsPath1064" d="M 0 0L 91 0L 91 46L 0 46Z" stroke-dasharray="3,4" stroke="rgba(50,50,50,1)" stroke-width="1.5" fill-opacity="1" fill="#f2f2f2"></path><g id="SvgjsG1065"><text id="SvgjsText1066" font-family="微软雅黑" text-anchor="middle" font-size="13px" width="71px" fill="#323232" font-weight="400" align="middle" lineHeight="125%" anchor="middle" family="微软雅黑" size="13px" weight="400" font-style="" opacity="1" y="12.375" transform="rotate(0)"><tspan id="SvgjsTspan1067" dy="16.25" x="45.5"><tspan id="SvgjsTspan1068" style="">mask</tspan></tspan></text></g></g><g id="SvgjsG1069" transform="translate(75.10226440429688,148.71590423583984)"><path id="SvgjsPath1070" d="M 0 4Q 0 0 4 0L 87 0Q 91 0 91 4L 91 42Q 91 46 87 46L 4 46Q 0 46 0 42Z" stroke="rgba(127,127,127,1)" stroke-width="1.5" fill-opacity="1" fill="#d6d6d6"></path><g id="SvgjsG1071"><text id="SvgjsText1072" font-family="微软雅黑" text-anchor="middle" font-size="13px" width="71px" fill="#323232" font-weight="400" align="middle" lineHeight="125%" anchor="middle" family="微软雅黑" size="13px" weight="400" font-style="" opacity="1" y="3.875" transform="rotate(0)"><tspan id="SvgjsTspan1073" dy="16.25" x="45.5"><tspan id="SvgjsTspan1074" style="">generated </tspan></tspan><tspan id="SvgjsTspan1075" dy="16.25" x="45.5"><tspan id="SvgjsTspan1076" style="">masking</tspan></tspan></text></g></g><g id="SvgjsG1077" transform="translate(640.5482788085936,268.71590423583984)"><path id="SvgjsPath1078" d="M 0 4Q 0 0 4 0L 87 0Q 91 0 91 4L 91 42Q 91 46 87 46L 4 46Q 0 46 0 42Z" stroke="rgba(233,214,111,1)" stroke-width="1.5" fill-opacity="1" fill="#fcf9ea"></path><g id="SvgjsG1079"><text id="SvgjsText1080" font-family="微软雅黑" text-anchor="middle" font-size="13px" width="71px" fill="#323232" font-weight="400" align="middle" lineHeight="125%" anchor="middle" family="微软雅黑" size="13px" weight="400" font-style="" opacity="1" y="12.375" transform="rotate(0)"><tspan id="SvgjsTspan1081" dy="16.25" x="45.5"><tspan id="SvgjsTspan1082" style="">conv.</tspan></tspan></text></g></g><g id="SvgjsG1083" transform="translate(75.10226440429689,87.71590423583984)"><path id="SvgjsPath1084" d="M 0 0L 91 0L 91 46L 0 46Z" stroke-dasharray="3,4" stroke="rgba(50,50,50,1)" stroke-width="1.5" fill-opacity="1" fill="#f2f2f2"></path><g id="SvgjsG1085"><text id="SvgjsText1086" font-family="微软雅黑" text-anchor="middle" font-size="13px" width="71px" fill="#323232" font-weight="400" align="middle" lineHeight="125%" anchor="middle" family="微软雅黑" size="13px" weight="400" font-style="" opacity="1" y="12.375" transform="rotate(0)"><tspan id="SvgjsTspan1087" dy="16.25" x="45.5"><tspan id="SvgjsTspan1088" style="">label</tspan></tspan></text></g></g><g id="SvgjsG1089" transform="translate(399.1022644042969,333.71590423583984)"><path id="SvgjsPath1090" d="M 0 4Q 0 0 4 0L 87 0Q 91 0 91 4L 91 42Q 91 46 87 46L 4 46Q 0 46 0 42Z" stroke="rgba(149,218,105,1)" stroke-width="1.5" fill-opacity="1" fill="#e5f6da"></path><g id="SvgjsG1091"><text id="SvgjsText1092" font-family="微软雅黑" text-anchor="middle" font-size="13px" width="71px" fill="#323232" font-weight="400" align="middle" lineHeight="125%" anchor="middle" family="微软雅黑" size="13px" weight="400" font-style="" opacity="1" y="12.375" transform="rotate(0)"><tspan id="SvgjsTspan1093" dy="16.25" x="45.5"><tspan id="SvgjsTspan1094" style="">Local</tspan></tspan></text></g></g><g id="SvgjsG1095" transform="translate(399.1022644042969,268.71590423583984)"><path id="SvgjsPath1096" d="M 0 4Q 0 0 4 0L 87 0Q 91 0 91 4L 91 42Q 91 46 87 46L 4 46Q 0 46 0 42Z" stroke="rgba(241,172,106,1)" stroke-width="1.5" fill-opacity="1" fill="#fbeada"></path><g id="SvgjsG1097"><text id="SvgjsText1098" font-family="微软雅黑" text-anchor="middle" font-size="13px" width="71px" fill="#323232" font-weight="400" align="middle" lineHeight="125%" anchor="middle" family="微软雅黑" size="13px" weight="400" font-style="" opacity="1" y="12.375" transform="rotate(0)"><tspan id="SvgjsTspan1099" dy="16.25" x="45.5"><tspan id="SvgjsTspan1100" style="">Global</tspan></tspan></text></g></g><g id="SvgjsG1101" transform="translate(818.1022644042969,333.71590423583984)"><path id="SvgjsPath1102" d="M 0 4Q 0 0 4 0L 87 0Q 91 0 91 4L 91 42Q 91 46 87 46L 4 46Q 0 46 0 42Z" stroke="rgba(141,190,213,1)" stroke-width="1.5" fill-opacity="1" fill="#e2eff5"></path><g id="SvgjsG1103"><text id="SvgjsText1104" font-family="微软雅黑" text-anchor="middle" font-size="13px" width="71px" fill="#323232" font-weight="400" align="middle" lineHeight="125%" anchor="middle" family="微软雅黑" size="13px" weight="400" font-style="" opacity="1" y="12.375" transform="rotate(0)"><tspan id="SvgjsTspan1105" dy="16.25" x="45.5"><tspan id="SvgjsTspan1106" style="">FC</tspan></tspan></text></g></g><g id="SvgjsG1107"><path id="SvgjsPath1108" d="M120.6022644042969 332.96590423583984L120.6022644042969 263.80573513110477L120.6022644042969 263.80573513110477L120.6022644042969 197.41590423583983" stroke-dasharray="3,3" stroke="#323232" stroke-width="1.5" fill="none" marker-end="url(#SvgjsMarker1109)"></path></g><g id="SvgjsG1111" transform="translate(818.1022644042969,148.71590423583984)"><path id="SvgjsPath1112" d="M 0 4Q 0 0 4 0L 87 0Q 91 0 91 4L 91 42Q 91 46 87 46L 4 46Q 0 46 0 42Z" stroke="rgba(233,214,111,1)" stroke-width="1.5" fill-opacity="1" fill="#fcf9ea"></path><g id="SvgjsG1113"><text id="SvgjsText1114" font-family="微软雅黑" text-anchor="middle" font-size="13px" width="71px" fill="#323232" font-weight="400" align="middle" lineHeight="125%" anchor="middle" family="微软雅黑" size="13px" weight="400" font-style="" opacity="1" y="12.375" transform="rotate(0)"><tspan id="SvgjsTspan1115" dy="16.25" x="45.5"><tspan id="SvgjsTspan1116" style="">convTrans.</tspan></tspan></text></g></g><g id="SvgjsG1117"><path id="SvgjsPath1118" d="M909.8522644042969 170.45738983154297L927.9332427978516 170.45738983154297L927.9332427978516 170.45738983154297L945.4022644042968 170.45738983154297" stroke="#323232" stroke-width="1.5" fill="none" marker-end="url(#SvgjsMarker1119)"></path></g><g id="SvgjsG1121" transform="translate(529.129845937093,346.71590423583984)"><path id="SvgjsPath1122" d="M 0 10C 0 -3.3333333333333335 20 -3.3333333333333335 20 10C 20 23.333333333333332 0 23.333333333333332 0 10Z" stroke="rgba(50,50,50,1)" stroke-width="1.5" fill-opacity="1" fill="#ffffff"></path><path id="SvgjsPath1123" d="M 3.333333333333333 3.333333333333333L 16.666666666666668 16.666666666666668M 16.666666666666668 3.333333333333333L 3.333333333333333 16.666666666666668" stroke="rgba(50,50,50,1)" stroke-width="1.5" fill-opacity="1" fill="#ffffff"></path><path id="SvgjsPath1124" d="M 0 10C 0 -3.3333333333333335 20 -3.3333333333333335 20 10C 20 23.333333333333332 0 23.333333333333332 0 10Z" stroke="none" fill="none"></path></g><g id="SvgjsG1125"><path id="SvgjsPath1126" d="M909.8522644042969 356.7159042358399L928.0717391967773 356.7159042358399L928.0717391967773 356.7159042358399L945.4022644042968 356.7159042358399" stroke="#323232" stroke-width="1.5" fill="none" marker-end="url(#SvgjsMarker1127)"></path></g><g id="SvgjsG1129" transform="translate(758.5482788085936,346.71590423583984)"><path id="SvgjsPath1130" d="M 0 10C 0 -3.3333333333333335 20 -3.3333333333333335 20 10C 20 23.333333333333332 0 23.333333333333332 0 10Z" stroke="rgba(50,50,50,1)" stroke-width="1.5" fill-opacity="1" fill="#ffffff"></path><path id="SvgjsPath1131" d="M 3.333333333333333 3.333333333333333L 16.666666666666668 16.666666666666668M 16.666666666666668 3.333333333333333L 3.333333333333333 16.666666666666668" stroke="rgba(50,50,50,1)" stroke-width="1.5" fill-opacity="1" fill="#ffffff"></path><path id="SvgjsPath1132" d="M 0 10C 0 -3.3333333333333335 20 -3.3333333333333335 20 10C 20 23.333333333333332 0 23.333333333333332 0 10Z" stroke="none" fill="none"></path></g><g id="SvgjsG1133"><path id="SvgjsPath1134" d="M308.37925720214844 356.71590423583984L353.36576080322266 356.71590423583984L353.36576080322266 291.71590423583984L396.4022644042969 291.71590423583984" stroke="#323232" stroke-width="1.5" fill="none" marker-end="url(#SvgjsMarker1135)"></path></g><g id="SvgjsG1137"><path id="SvgjsPath1138" d="M308.37925720214844 356.71590423583984L353.36576080322266 356.71590423583984L353.36576080322266 356.71590423583984L396.4022644042969 356.71590423583984" stroke="#323232" stroke-width="1.5" fill="none" marker-end="url(#SvgjsMarker1139)"></path></g><g id="SvgjsG1141"><path id="SvgjsPath1142" d="M779.2982788085936 356.71590423583984L798.2407608032227 356.71590423583984L798.2407608032227 356.71590423583984L815.4022644042968 356.71590423583984" stroke="#323232" stroke-width="1.5" fill="none" marker-end="url(#SvgjsMarker1143)"></path></g><g id="SvgjsG1145"><path id="SvgjsPath1146" d="M490.8522644042969 291.71590423583984L539.129845937093 291.71590423583984L539.129845937093 344.01590423583986" stroke="#323232" stroke-width="1.5" fill="none" marker-end="url(#SvgjsMarker1147)"></path></g><g id="SvgjsG1149"><path id="SvgjsPath1150" d="M490.8522644042969 356.71590423583984L509.61605517069495 356.71590423583984L509.61605517069495 356.71590423583984L526.429845937093 356.71590423583984" stroke="#323232" stroke-width="1.5" fill="none" marker-end="url(#SvgjsMarker1151)"></path></g><g id="SvgjsG1153"><path id="SvgjsPath1154" d="M166.85226440429688 356.71590423583984L191.36576080322266 356.71590423583984L191.36576080322266 356.71590423583984L213.92925720214845 356.71590423583984" stroke="#323232" stroke-width="1.5" fill="none" marker-end="url(#SvgjsMarker1155)"></path></g><g id="SvgjsG1157"><path id="SvgjsPath1158" d="M549.879845937093 356.71590423583984L604.6216710684954 356.71590423583984L604.6216710684954 291.71590423583984L637.8482788085936 291.71590423583984" stroke="#323232" stroke-width="1.5" fill="none" marker-end="url(#SvgjsMarker1159)"></path></g><g id="SvgjsG1161"><path id="SvgjsPath1162" d="M549.879845937093 356.71590423583984L653.8390623728433 356.71590423583984L653.8390623728433 356.71590423583984L755.8482788085936 356.71590423583984" stroke="#323232" stroke-width="1.5" fill="none" marker-end="url(#SvgjsMarker1163)"></path></g><g id="SvgjsG1165"><path id="SvgjsPath1166" d="M732.2982788085936 291.71590423583984L768.5482788085936 291.71590423583984L768.5482788085936 344.01590423583986" stroke="#323232" stroke-width="1.5" fill="none" marker-end="url(#SvgjsMarker1167)"></path></g><g id="SvgjsG1169" transform="translate(582.6562500000001,240.21590423583984)"><path id="SvgjsPath1170" d="M 0 4Q 0 0 4 0L 202.78405761718705 0Q 206.78405761718705 0 206.78405761718705 4L 206.78405761718705 149Q 206.78405761718705 153 202.78405761718705 153L 4 153Q 0 153 0 149Z" stroke-dasharray="3,4" stroke="rgba(50,50,50,1)" stroke-width="1.5" fill="none"></path><g id="SvgjsG1171"><text id="SvgjsText1172" font-family="微软雅黑" text-anchor="middle" font-size="13px" width="197px" fill="#323232" font-weight="400" align="middle" lineHeight="125%" anchor="middle" family="微软雅黑" size="13px" weight="400" font-style="" opacity="1" y="1.3035714285714288" transform="rotate(0)"><tspan id="SvgjsTspan1173" dy="16.25" x="103.5"><tspan id="SvgjsTspan1174" style="">T.C. attention</tspan></tspan></text></g></g><g id="SvgjsG1175"><path id="SvgjsPath1176" d="M732.2982788085936 291.71590423583984L768.4951215471539 291.71590423583984L768.4951215471539 171.71590423583984L815.4022644042968 171.71590423583984" stroke="#323232" stroke-width="1.5" fill="none" marker-end="url(#SvgjsMarker1177)"></path></g></svg>